{
    "asset" : {
        "generator" : "Khronos glTF Blender I/O v1.6.16",
        "version" : "2.0"
    },
    "scene" : 0,
    "scenes" : [
        {
            "extras" : {
                "glTF2ExportSettings" : {
                    "export_cameras" : 1,
                    "export_copyright" : "",
                    "export_extras" : 1,
                    "export_format" : "GLTF_SEPARATE",
                    "export_image_format" : "JPEG",
                    "export_lights" : 1,
                    "export_tangents" : 1,
                    "export_texture_dir" : "",
                    "export_yup" : 1,
                    "use_active_collection" : 1,
                    "use_mesh_edges" : 1,
                    "use_mesh_vertices" : 1,
                    "use_renderable" : 1,
                    "use_selection" : 1,
                    "use_visible" : 1
                }
            },
            "name" : "Scene",
            "nodes" : [
                0
            ]
        }
    ],
    "nodes" : [
        {
            "mesh" : 0,
            "name" : "Brett",
            "scale" : [
                0.09723299741744995,
                0.1339716911315918,
                0.09702744334936142
            ]
        }
    ],
    "materials" : [
        {
            "doubleSided" : true,
            "name" : "Material.002",
            "normalTexture" : {
                "index" : 0
            },
            "pbrMetallicRoughness" : {
                "baseColorTexture" : {
                    "index" : 1
                },
                "metallicRoughnessTexture" : {
                    "index" : 2
                }
            }
        }
    ],
    "meshes" : [
        {
            "name" : "Plane",
            "primitives" : [
                {
                    "attributes" : {
                        "POSITION" : 0,
                        "NORMAL" : 1
                    },
                    "indices" : 2
                },
                {
                    "attributes" : {
                        "POSITION" : 3,
                        "NORMAL" : 4
                    },
                    "indices" : 5,
                    "material" : 0
                }
            ]
        }
    ],
    "textures" : [
        {
            "sampler" : 0,
            "source" : 0
        },
        {
            "sampler" : 0,
            "source" : 1
        },
        {
            "sampler" : 0,
            "source" : 2
        }
    ],
    "images" : [
        {
            "mimeType" : "image/jpeg",
            "name" : "white_marble_normal",
            "uri" : "white_marble_normal.jpg"
        },
        {
            "mimeType" : "image/jpeg",
            "name" : "white_marble_baseColor",
            "uri" : "white_marble_baseColor.jpg"
        },
        {
            "mimeType" : "image/jpeg",
            "name" : "white_marble_metallic-white_marble_metallicRoughness",
            "uri" : "white_marble_metallic-white_marble_metallicRoughness.jpg"
        }
    ],
    "accessors" : [
        {
            "bufferView" : 0,
            "componentType" : 5126,
            "count" : 103,
            "max" : [
                1.2831417322158813,
                0,
                1.283141851425171
            ],
            "min" : [
                -1.2831419706344604,
                -0.06755159050226212,
                -1.283142328262329
            ],
            "type" : "VEC3"
        },
        {
            "bufferView" : 1,
            "componentType" : 5126,
            "count" : 103,
            "type" : "VEC3"
        },
        {
            "bufferView" : 2,
            "componentType" : 5123,
            "count" : 294,
            "type" : "SCALAR"
        },
        {
            "bufferView" : 3,
            "componentType" : 5126,
            "count" : 93,
            "max" : [
                1.1117050647735596,
                0,
                1.1117051839828491
            ],
            "min" : [
                -1.1117053031921387,
                0,
                -1.1117056608200073
            ],
            "type" : "VEC3"
        },
        {
            "bufferView" : 4,
            "componentType" : 5126,
            "count" : 93,
            "type" : "VEC3"
        },
        {
            "bufferView" : 5,
            "componentType" : 5123,
            "count" : 324,
            "type" : "SCALAR"
        }
    ],
    "bufferViews" : [
        {
            "buffer" : 0,
            "byteLength" : 1236,
            "byteOffset" : 0
        },
        {
            "buffer" : 0,
            "byteLength" : 1236,
            "byteOffset" : 1236
        },
        {
            "buffer" : 0,
            "byteLength" : 588,
            "byteOffset" : 2472
        },
        {
            "buffer" : 0,
            "byteLength" : 1116,
            "byteOffset" : 3060
        },
        {
            "buffer" : 0,
            "byteLength" : 1116,
            "byteOffset" : 4176
        },
        {
            "buffer" : 0,
            "byteLength" : 648,
            "byteOffset" : 5292
        }
    ],
    "samplers" : [
        {
            "magFilter" : 9729,
            "minFilter" : 9987
        }
    ],
    "buffers" : [
        {
            "byteLength" : 5940,
            "uri" : "board.bin"
        }
    ]
}
